<?xml version="1.0" encoding="utf-8"?>
<!-- Generator: Adobe Illustrator 26.0.1, SVG Export Plug-In . SVG Version: 6.00 Build 0)  -->
<!DOCTYPE svg PUBLIC "-//W3C//DTD SVG 1.1//EN" "http://www.w3.org/Graphics/SVG/1.1/DTD/svg11.dtd" [
	<!ENTITY ns_extend "http://ns.adobe.com/Extensibility/1.0/">
	<!ENTITY ns_ai "http://ns.adobe.com/AdobeIllustrator/10.0/">
	<!ENTITY ns_graphs "http://ns.adobe.com/Graphs/1.0/">
	<!ENTITY ns_vars "http://ns.adobe.com/Variables/1.0/">
	<!ENTITY ns_imrep "http://ns.adobe.com/ImageReplacement/1.0/">
	<!ENTITY ns_sfw "http://ns.adobe.com/SaveForWeb/1.0/">
	<!ENTITY ns_custom "http://ns.adobe.com/GenericCustomNamespace/1.0/">
	<!ENTITY ns_adobe_xpath "http://ns.adobe.com/XPath/1.0/">
]>
<svg version="1.1" xmlns:x="&ns_extend;" xmlns:i="&ns_ai;" xmlns:graph="&ns_graphs;"
	 xmlns="http://www.w3.org/2000/svg" xmlns:xlink="http://www.w3.org/1999/xlink" x="0px" y="0px" width="750px" height="750px"
	 viewBox="0 0 750 750" style="enable-background:new 0 0 750 750;" xml:space="preserve">
<style type="text/css">
	.st0{fill:#FFFFFF;}
	.st1{fill:none;stroke:#D2374E;stroke-width:2;stroke-linecap:round;stroke-linejoin:round;stroke-miterlimit:10;}
	.st2{fill:#D2374E;}
	.st3{fill:none;stroke:#D2374E;stroke-width:2.25;stroke-linecap:round;stroke-linejoin:round;}
	.st4{fill:none;stroke:#D2374E;stroke-width:2.25;stroke-linecap:round;stroke-linejoin:round;stroke-dasharray:3.0104,6.0208;}
	.st5{fill:none;stroke:#D2374E;stroke-width:2.25;stroke-linecap:round;stroke-linejoin:round;stroke-dasharray:2.923,5.846;}
	.st6{fill:none;stroke:#D2374E;stroke-width:2.25;stroke-linecap:round;stroke-linejoin:round;stroke-dasharray:2.9878,5.9756;}
	.st7{fill:none;stroke:#D2374E;stroke-width:2.25;stroke-linecap:round;stroke-linejoin:round;stroke-dasharray:3.0445,6.089;}
	.st8{fill:none;stroke:#D2374E;stroke-width:2.25;stroke-linecap:round;stroke-linejoin:round;stroke-dasharray:2.9258,5.8515;}
	.st9{fill:none;stroke:#D2374E;stroke-width:2.25;stroke-linecap:round;stroke-linejoin:round;stroke-dasharray:2.9822,5.9644;}
	.st10{fill:none;stroke:#D2374E;stroke-width:2.25;stroke-linecap:round;stroke-linejoin:round;stroke-dasharray:1.568,3.1361;}
	.st11{fill:none;stroke:#D2374E;stroke-width:2.25;stroke-linecap:round;stroke-linejoin:round;stroke-dasharray:2.9802,5.9603;}
	.st12{fill:none;stroke:#D2374E;stroke-width:2.25;stroke-linecap:round;stroke-linejoin:round;stroke-dasharray:3.0008,6.0016;}
	.st13{fill:none;stroke:#D2374E;stroke-width:2.25;stroke-linecap:round;stroke-linejoin:round;stroke-dasharray:2.9135,5.8269;}
	.st14{fill:none;stroke:#D2374E;stroke-width:2.25;stroke-linecap:round;stroke-linejoin:round;stroke-dasharray:2.9657,5.9315;}
	.st15{fill:none;stroke:#D2374E;stroke-width:2.25;stroke-linecap:round;stroke-linejoin:round;stroke-dasharray:3.0178,6.0355;}
	.st16{fill:none;stroke:#D2374E;stroke-width:2.25;stroke-linecap:round;stroke-linejoin:round;stroke-dasharray:2.9972,5.9944;}
	.st17{fill:none;stroke:#D2374E;stroke-width:2.25;stroke-linecap:round;stroke-linejoin:round;stroke-dasharray:3.0029,6.0057;}
	.st18{fill:none;stroke:#D2374E;stroke-width:2.25;stroke-linecap:round;stroke-linejoin:round;stroke-dasharray:3.0032,6.0063;}
	.st19{fill:none;stroke:#D2374E;stroke-width:2.25;stroke-linecap:round;stroke-linejoin:round;stroke-dasharray:3.0011,6.0022;}
	.st20{fill:none;stroke:#D2374E;stroke-width:2.25;stroke-linecap:round;stroke-linejoin:round;stroke-dasharray:2.995,5.9901;}
	.st21{fill:none;stroke:#D2374E;stroke-width:2.25;stroke-linecap:round;stroke-linejoin:round;stroke-dasharray:3.0131,6.0261;}
	.st22{fill:none;stroke:#D2374E;stroke-width:2.25;stroke-linecap:round;stroke-linejoin:round;stroke-dasharray:2.9737,5.9473;}
	.st23{fill:none;stroke:#D2374E;stroke-width:2.25;stroke-linecap:round;stroke-linejoin:round;stroke-dasharray:2.9963,5.9926;}
	.st24{fill:none;stroke:#D2374E;stroke-width:2.25;stroke-linecap:round;stroke-linejoin:round;stroke-dasharray:2.9569,5.9139;}
	.st25{fill:none;stroke:#D2374E;stroke-width:2.25;stroke-linecap:round;stroke-linejoin:round;stroke-dasharray:2.9978,5.9956;}
	.st26{fill:none;stroke:#D2374E;stroke-width:2.25;stroke-linecap:round;stroke-linejoin:round;stroke-dasharray:3.0007,6.0014;}
	.st27{fill:none;stroke:#D2374E;stroke-width:2.25;stroke-linecap:round;stroke-linejoin:round;stroke-dasharray:2.9853,5.9707;}
	.st28{fill:none;stroke:#D2374E;stroke-width:2.25;stroke-linecap:round;stroke-linejoin:round;stroke-dasharray:3.0095,6.0189;}
	.st29{fill:none;stroke:#D2374E;stroke-width:2.25;stroke-linecap:round;stroke-linejoin:round;stroke-dasharray:2.9823,5.9646;}
	.st30{fill:none;stroke:#D2374E;stroke-width:2.25;stroke-linecap:round;stroke-linejoin:round;stroke-dasharray:2.9748,5.9497;}
	.st31{fill:none;stroke:#D2374E;stroke-width:2.25;stroke-linecap:round;stroke-linejoin:round;stroke-dasharray:3.0181,6.0362;}
	.st32{fill:none;stroke:#D2374E;stroke-width:2.25;stroke-linecap:round;stroke-linejoin:round;stroke-dasharray:3.0067,6.0134;}
	.st33{fill:none;stroke:#D2374E;stroke-width:2.25;stroke-linecap:round;stroke-linejoin:round;stroke-dasharray:2.9775,5.955;}
	.st34{fill:none;stroke:#D2374E;stroke-width:2.25;stroke-linecap:round;stroke-linejoin:round;stroke-dasharray:2.9994,5.9988;}
	.st35{fill:none;stroke:#D2374E;stroke-width:2.25;stroke-linecap:round;stroke-linejoin:round;stroke-dasharray:2.9894,5.9788;}
	.st36{fill:none;stroke:#D2374E;stroke-width:2.25;stroke-linecap:round;stroke-linejoin:round;stroke-dasharray:3.0067,6.0133;}
	.st37{fill:none;stroke:#D2374E;stroke-width:2.25;stroke-linecap:round;stroke-linejoin:round;stroke-dasharray:2.9923,5.9847;}
	.st38{fill:none;stroke:#D2374E;stroke-width:2.25;stroke-linecap:round;stroke-linejoin:round;stroke-dasharray:2.995,5.99;}
	.st39{fill:none;stroke:#D2374E;stroke-width:2.25;stroke-linecap:round;stroke-linejoin:round;stroke-dasharray:3.0222,6.0444;}
	.st40{fill:none;stroke:#D2374E;stroke-width:2.25;stroke-linecap:round;stroke-linejoin:round;stroke-dasharray:3.0061,6.0122;}
	.st41{fill:none;stroke:#D2374E;stroke-width:2.25;stroke-linecap:round;stroke-linejoin:round;stroke-dasharray:3.1145,6.229;}
	.st42{fill:none;stroke:#D2374E;stroke-width:2.25;stroke-linecap:round;stroke-linejoin:round;stroke-dasharray:2.961,5.922;}
	.st43{fill:none;stroke:#D2374E;stroke-width:2.25;stroke-linecap:round;stroke-linejoin:round;stroke-dasharray:2.9953,5.9905;}
	.st44{fill:none;stroke:#D2374E;stroke-width:2.25;stroke-linecap:round;stroke-linejoin:round;stroke-dasharray:3.0509,6.1019;}
	.st45{fill:none;stroke:#D2374E;stroke-width:2.25;stroke-linecap:round;stroke-linejoin:round;stroke-dasharray:2.9966,5.9932;}
	.st46{fill:none;stroke:#D2374E;stroke-width:2.25;stroke-linecap:round;stroke-linejoin:round;stroke-dasharray:2.7885,5.5771;}
	.st47{fill:none;stroke:#D2374E;stroke-width:2.25;stroke-linecap:round;stroke-linejoin:round;stroke-dasharray:2.1772,4.3544;}
	.st48{fill:none;stroke:#D2374E;stroke-width:2.25;stroke-linecap:round;stroke-linejoin:round;stroke-dasharray:2.9929,5.9859;}
	.st49{fill:none;stroke:#D2374E;stroke-width:2.25;stroke-linecap:round;stroke-linejoin:round;stroke-dasharray:2.9967,5.9935;}
	.st50{fill:none;stroke:#D2374E;stroke-width:2.25;stroke-linecap:round;stroke-linejoin:round;stroke-dasharray:3.0224,6.0448;}
	.st51{fill:none;stroke:#D2374E;stroke-width:2.25;stroke-linecap:round;stroke-linejoin:round;stroke-dasharray:3.018,6.036;}
	.st52{fill:none;stroke:#D2374E;stroke-width:2.25;stroke-linecap:round;stroke-linejoin:round;stroke-dasharray:2.9875,5.975;}
	.st53{fill:none;stroke:#D2374E;stroke-width:2.25;stroke-linecap:round;stroke-linejoin:round;stroke-dasharray:1.5169,3.0339;}
	.st54{fill:none;stroke:#D2374E;stroke-width:2.75;stroke-linecap:round;stroke-linejoin:round;stroke-miterlimit:10;}
	.st55{fill:none;stroke:#D2374E;stroke-width:2.25;stroke-linecap:round;stroke-linejoin:round;stroke-miterlimit:10;}
	.st56{fill:none;stroke:#D2374E;stroke-width:3.5;stroke-linecap:round;stroke-linejoin:round;stroke-miterlimit:10;}
	.st57{fill:none;stroke:#D2374E;stroke-width:3;stroke-linecap:round;stroke-linejoin:round;stroke-miterlimit:10;}
</style>
<metadata>
	<sfw  xmlns="&ns_sfw;">
		<slices></slices>
		<sliceSourceBounds  bottomLeftOrigin="true" height="12297.066" width="5142" x="-2000" y="-3189"></sliceSourceBounds>
	</sfw>
</metadata>
<g id="FILL-BACKGROUND">
	<rect y="0" class="st0" width="750" height="750"/>
</g>
<g id="N-DIMENSIONS">
</g>
<g id="N-TEXT">
</g>
<g id="_x32_D_x24_AG-DIAGRAM">
</g>
<g id="_x32_D_x24_AG-DETAILS-DIAGRAM">
</g>
<g id="_x32_D_x24_AG-DETAILS">
	<g id="POLYLINE_00000077289753755184267430000007377213880243599798_">
		<line class="st1" x1="375" y1="378.518" x2="375" y2="312.606"/>
	</g>
</g>
<g id="_x32_D_x24_AG-OBJECTS">
	<g id="POLYLINE_00000172434533900069186630000004621404338363128752_">
		<path class="st54" d="M669.377,518.81c0.496,0.239,1.087,0.271,1.606,0.086c0.485-0.169,0.903-0.523,1.149-0.974
			c0.141-0.257,0.228-0.544,0.253-0.836c0.033-0.583-0.098-1.557-0.124-2.145c-0.545-6.486-2.215-12.932-5.232-18.716
			c-3.942-7.667-10.201-13.975-17.386-18.658c-4.792-3.268-12.621-6.679-17.888-9.235c-0.947-0.451-1.952-0.8-2.989-0.973
			c-1.561-0.273-3.178-0.078-4.667,0.448c-1.24,0.418-2.537,1.126-3.806,1.457c-1.022,0.275-2.111,0.354-3.15,0.124
			c-1.24-0.288-2.446-0.871-3.342-1.789c-0.865-0.885-1.37-2.06-1.653-3.251c-0.3-1.226-0.54-2.526-1.085-3.658
			c-0.404-0.874-0.965-1.678-1.648-2.358c-0.71-0.711-1.544-1.296-2.425-1.777c-0.188-0.103-0.393-0.208-0.585-0.302
			c-0.112-0.054-137.527-65.542-137.65-65.601c-1.651-0.793-3.959-1.949-5.579-2.835c-8.386-4.536-16.249-10.25-22.541-17.456
			c-5.317-6.066-9.516-13.116-13.332-20.195c-4.184-7.826-8.806-18.35-14.766-24.909c-3.228-3.637-7.243-6.598-11.753-8.441
			c-3.55-1.478-7.348-2.422-11.134-3.067c-4.815-0.808-9.771-1.135-14.652-1.141c-4.88,0.006-9.837,0.333-14.651,1.141
			c-3.785,0.645-7.583,1.589-11.134,3.067c-4.51,1.843-8.526,4.803-11.753,8.441c-5.949,6.535-10.606,17.135-14.766,24.909
			c-3.819,7.08-8.015,14.128-13.332,20.195c-6.074,6.955-13.614,12.526-21.671,16.979c-1.332,0.741-3.142,1.683-4.52,2.373
			c0,0-1.929,0.939-1.929,0.939c-0.058,0.03-137.577,65.563-137.649,65.6c-0.184,0.09-0.405,0.203-0.585,0.302
			c-0.852,0.465-1.66,1.028-2.355,1.708c-0.694,0.676-1.269,1.479-1.684,2.355c-0.579,1.18-0.815,2.472-1.119,3.73
			c-0.259,1.082-0.694,2.149-1.425,3c-0.62,0.733-1.442,1.268-2.323,1.637c-0.646,0.276-1.335,0.465-2.037,0.519
			c-0.792,0.065-1.594-0.037-2.359-0.241c-1.423-0.375-2.824-1.182-4.235-1.596c-1.24-0.384-2.56-0.531-3.85-0.365
			c-0.925,0.114-1.832,0.373-2.694,0.727c-2.547,1.172-10.302,4.85-12.692,6.09c-2.815,1.477-5.615,3.179-8.192,5.041
			c-5.865,4.223-10.975,9.609-14.476,15.956c-2.936,5.266-4.742,11.139-5.531,17.106c-0.193,1.522-0.371,3.22-0.427,4.754
			c0.007,0.219,0.049,0.439,0.124,0.646c0.213,0.6,0.713,1.089,1.319,1.286c0.383,0.127,0.803,0.142,1.193,0.04
			c0.413,0.001,294.351-140.332,294.756-140.43L669.377,518.81z"/>
	</g>
	<g id="POLYLINE_00000058577166161800170060000005949601043894359960_">
		<line class="st54" x1="87.259" y1="515.647" x2="662.741" y2="515.647"/>
	</g>
	<g id="POLYLINE_00000005251696738507108270000006222811013789887911_">
		<line class="st54" x1="636.527" y1="503.154" x2="113.473" y2="503.154"/>
	</g>
	<g id="POLYLINE_00000012471315673308379170000007448564539385800579_">
		<path class="st54" d="M377.776,312.644c0.041-2.711-0.113-23.088,0.118-25.244c0.141-1.975,0.412-3.977,0.964-5.882
			c1.041-3.809,3.474-7.033,5.982-10.009c3.078-3.601,7.158-8.269,9.98-12.006c2.845-3.725,5.58-7.795,7.95-11.839
			c6.396-12.946,2.966-28.691-8.269-37.771c-10.898-8.87-26.568-9.23-37.866-0.88c-3.435,2.514-6.324,5.77-8.457,9.451
			c-0.565,0.976-1.094,2.018-1.546,3.051c-0.512,1.166-1.199,2.691-1.868,3.764c-0.295,0.455-0.645,0.881-1.042,1.251
			c-0.463,0.431-0.989,0.809-1.516,1.158c-1.563,1.011-8.883,5.307-10.583,6.33c-0.879,0.512-1.423,1.534-1.353,2.55
			c0.051,1.017,0.708,1.968,1.643,2.374c0.749,0.337,1.645,0.316,2.377-0.057c2.506-1.522,9.44-5.478,11.726-7.073
			c0.864-0.628,1.672-1.346,2.375-2.15c1.071-1.194,1.822-2.645,2.492-4.092c0.779-1.677,1.572-3.574,2.582-5.118
			c1.635-2.607,3.746-4.928,6.207-6.778c7.437-5.652,17.547-6.73,26.014-2.79c12.885,5.984,18.374,21.359,12.189,34.152
			c-2.234,3.796-4.808,7.618-7.482,11.117c-2.742,3.63-6.828,8.296-9.812,11.793c-1.721,2.063-3.432,4.228-4.754,6.57
			c-0.972,1.709-1.749,3.539-2.293,5.429c-0.663,2.279-1.007,4.671-1.176,7.035c-0.26,2.546-0.087,22.668-0.134,25.665"/>
	</g>
</g>
<g id="_x32_D_x24_AG-OUTLINE">
	<g id="POLYLINE_00000090294044600967017510000018428692101241058703_">
		<polygon class="st56" points="113.473,503.154 375,378.518 636.527,503.154 		"/>
	</g>
	<g id="POLYLINE_00000123429635867961029390000007769639183565903791_">
		<path class="st56" d="M669.377,518.81c0.657,0.319,1.476,0.26,2.08-0.151c0.582-0.385,0.945-1.07,0.935-1.768
			c-0.341-6.728-1.847-13.463-4.798-19.538c-2.212-4.584-5.233-8.776-8.817-12.385c-5.077-5.125-11.245-9.117-17.738-12.211
			c0,0-9.284-4.425-9.284-4.425c-0.098-0.044-0.244-0.116-0.344-0.158c-0.096-0.04-0.24-0.106-0.338-0.144
			c-0.678-0.278-1.388-0.499-2.109-0.635c-1.571-0.31-3.212-0.151-4.723,0.365c-1.262,0.406-2.566,1.125-3.846,1.477
			c-1.052,0.297-2.178,0.39-3.251,0.151c-1.24-0.288-2.446-0.871-3.342-1.789c-0.865-0.885-1.37-2.06-1.653-3.251
			c-0.3-1.226-0.54-2.526-1.085-3.658c-0.404-0.874-0.965-1.678-1.648-2.358c-0.71-0.711-1.544-1.296-2.425-1.777
			c-0.188-0.103-0.393-0.208-0.585-0.302c-0.112-0.054-137.527-65.542-137.65-65.601c-1.651-0.793-3.959-1.949-5.579-2.835
			c-8.386-4.536-16.249-10.25-22.541-17.456c-5.317-6.066-9.516-13.116-13.332-20.195c-4.673-8.682-9.418-19.976-16.619-26.835
			c-3.155-3.077-6.969-5.465-11.101-6.992c-6.946-2.579-14.439-3.46-21.808-3.694c0.041-2.711-0.113-23.088,0.118-25.244
			c0.141-1.975,0.412-3.977,0.964-5.882c1.041-3.809,3.474-7.033,5.982-10.009c3.078-3.601,7.158-8.269,9.98-12.006
			c2.845-3.725,5.58-7.795,7.95-11.839c6.525-13.204,2.81-29.283-8.88-38.253c-11.594-8.955-27.984-8.498-39.082,1.053
			c-2.927,2.511-5.372,5.594-7.183,8.998c-0.918,1.704-1.636,3.671-2.583,5.359c-0.267,0.471-0.578,0.923-0.942,1.325
			c-0.46,0.509-1.011,0.936-1.574,1.326c-1.827,1.226-9.012,5.392-10.983,6.595c-0.125,0.08-0.246,0.172-0.356,0.271
			c-0.695,0.615-1.042,1.591-0.888,2.507c0.132,0.854,0.688,1.626,1.456,2.021c0.704,0.372,1.567,0.417,2.306,0.121
			c1.377-0.715,8.976-5.317,10.187-6.014c0.938-0.571,1.875-1.188,2.709-1.902c0.815-0.694,1.558-1.483,2.183-2.353
			c0.696-0.967,1.237-2.072,1.742-3.148c0.772-1.712,1.709-3.834,2.75-5.383c1.207-1.87,2.663-3.598,4.315-5.091
			c7.108-6.443,17.364-8.327,26.297-4.825c13.806,5.406,20.079,21.413,13.629,34.765c-2.234,3.796-4.808,7.618-7.482,11.117
			c-2.742,3.63-6.828,8.296-9.812,11.793c-1.721,2.063-3.432,4.228-4.754,6.57c-0.972,1.709-1.749,3.539-2.293,5.429
			c-0.663,2.279-1.007,4.671-1.176,7.035c-0.26,2.546-0.087,22.668-0.134,25.665c-7.369,0.234-14.862,1.114-21.808,3.693
			c-4.132,1.528-7.946,3.916-11.101,6.992c-7.179,6.837-11.976,18.186-16.619,26.834c-3.819,7.08-8.015,14.128-13.332,20.195
			c-6.074,6.955-13.614,12.526-21.671,16.979c-1.332,0.741-3.142,1.683-4.52,2.373c0,0-1.929,0.939-1.929,0.939
			c-0.058,0.03-137.577,65.563-137.649,65.6c-0.184,0.09-0.405,0.203-0.585,0.302c-0.852,0.465-1.66,1.028-2.355,1.708
			c-0.694,0.676-1.269,1.479-1.684,2.355c-0.579,1.18-0.815,2.472-1.119,3.73c-0.306,1.298-0.886,2.576-1.89,3.481
			c-0.541,0.496-1.184,0.872-1.858,1.156c-0.905,0.391-1.899,0.591-2.885,0.528c-1.695-0.076-3.226-0.895-4.768-1.505
			c-0.942-0.365-1.931-0.645-2.939-0.735c-1.031-0.097-2.079-0.001-3.081,0.256c-0.669,0.171-1.326,0.411-1.955,0.696
			c-3.333,1.661-10.868,5.027-13.988,6.841c-2.999,1.677-5.946,3.614-8.634,5.756c-4.282,3.41-8.084,7.487-11.002,12.127
			c-2.723,4.303-4.682,9.088-5.853,14.041c-0.761,3.213-1.218,6.572-1.39,9.869c-0.007,0.283,0.045,0.569,0.15,0.832
			c0.325,0.83,1.191,1.384,2.083,1.321c0.215-0.013,0.43-0.059,0.631-0.136c0.051-0.021,0.102-0.041,0.151-0.065
			c0,0,6.636-3.163,6.636-3.163h575.482L669.377,518.81z"/>
	</g>
</g>
</svg>
